<svg width="32" height="32" viewBox="0 0 32 32" fill="none" xmlns="http://www.w3.org/2000/svg">
<g clip-path="url(#clip0_4019_2)">
<path d="M1.5 22.9998H7.086L15.793 31.7068C15.9327 31.8469 16.1109 31.9424 16.305 31.9811C16.4991 32.0197 16.7003 31.9998 16.883 31.9238C17.0657 31.848 17.2218 31.7198 17.3316 31.5554C17.4415 31.3909 17.5 31.1976 17.5 30.9998V0.999787C17.5 0.802037 17.4413 0.608738 17.3314 0.444328C17.2215 0.279919 17.0654 0.151779 16.8827 0.0761089C16.7 0.000438906 16.4989 -0.0193641 16.305 0.0192035C16.111 0.0577711 15.9329 0.152977 15.793 0.292787L7.086 8.99979H1.5C1.23478 8.99979 0.98043 9.10514 0.792893 9.29268C0.605357 9.48022 0.5 9.73457 0.5 9.99979V21.9998C0.5 22.265 0.605357 22.5194 0.792893 22.7069C0.98043 22.8944 1.23478 22.9998 1.5 22.9998ZM2.5 10.9998H7.5C7.76519 10.9997 8.01951 10.8943 8.207 10.7068L15.5 3.41429V28.5858L8.207 21.2928C8.01951 21.1052 7.76519 20.9998 7.5 20.9998H2.5V10.9998Z" fill="black"/>
<path d="M20.5 20C20.2348 20 19.9804 20.1054 19.7929 20.2929C19.6054 20.4804 19.5 20.7348 19.5 21C19.5 21.2652 19.6054 21.5196 19.7929 21.7071C19.9804 21.8946 20.2348 22 20.5 22C23.8085 22 26.5 19.3085 26.5 16C26.5 12.6915 23.8085 10 20.5 10C20.2348 10 19.9804 10.1054 19.7929 10.2929C19.6054 10.4804 19.5 10.7348 19.5 11C19.5 11.2652 19.6054 11.5196 19.7929 11.7071C19.9804 11.8946 20.2348 12 20.5 12C22.7055 12 24.5 13.7945 24.5 16C24.5 18.2055 22.7055 20 20.5 20Z" fill="black"/>
<path d="M20.5 27C26.5655 27 31.5 22.0655 31.5 16C31.5 9.9345 26.5655 5 20.5 5C20.2348 5 19.9804 5.10536 19.7929 5.29289C19.6054 5.48043 19.5 5.73478 19.5 6C19.5 6.26522 19.6054 6.51957 19.7929 6.70711C19.9804 6.89464 20.2348 7 20.5 7C25.4625 7 29.5 11.0375 29.5 16C29.5 20.9625 25.4625 25 20.5 25C20.2348 25 19.9804 25.1054 19.7929 25.2929C19.6054 25.4804 19.5 25.7348 19.5 26C19.5 26.2652 19.6054 26.5196 19.7929 26.7071C19.9804 26.8946 20.2348 27 20.5 27Z" fill="black"/>
</g>
<defs>
<clipPath id="clip0_4019_2">
<rect width="32" height="32" fill="white"/>
</clipPath>
</defs>
</svg>
